{"scenes":[{"nodes":[0]}],"nodes":[{"name":"AnSceneNodeSzene%201","children":[1,3,5,7,9,11,13,15,17,19]},{"name":"AnGraphicTween203","children":[2],"translation":[-18.25,-482.5,0]},{"name":"AnNode2","mesh":0,"translation":[-55.75,34.5,0],"scale":[1.114983,0.690519,1]},{"name":"AnGraphicTween204","children":[4],"translation":[97.75,-402.5,0],"scale":[0,0,0]},{"name":"AnNode4","mesh":0,"translation":[-55.75,34.5,0],"scale":[0,0,0]},{"name":"AnGraphicTween205","children":[6],"translation":[207.75,-326.5,0],"scale":[0,0,0]},{"name":"AnNode6","mesh":0,"translation":[-55.75,34.5,0],"scale":[0,0,0]},{"name":"AnGraphicTween206","children":[8],"translation":[270.75,-384.5,0],"scale":[0,0,0]},{"name":"AnNode8","mesh":0,"translation":[-55.75,34.5,0],"scale":[0,0,0]},{"name":"AnGraphicTween207","children":[10],"translation":[380.75,-425.5,0],"scale":[0,0,0]},{"name":"AnNode10","mesh":0,"translation":[-55.75,34.5,0],"scale":[0,0,0]},{"name":"AnGraphicTween208","children":[12],"translation":[462.75,-304.5,0],"scale":[0,0,0]},{"name":"AnNode12","mesh":0,"translation":[-55.75,34.5,0],"scale":[0,0,0]},{"name":"AnGraphicTween209","children":[14],"translation":[599.75,-380.5,0],"scale":[0,0,0]},{"name":"AnNode14","mesh":0,"translation":[-55.75,34.5,0],"scale":[0,0,0]},{"name":"AnGraphicTween2010","children":[16],"translation":[707.75,-368.5,0],"scale":[0,0,0]},{"name":"AnNode16","mesh":0,"translation":[-55.75,34.5,0],"scale":[0,0,0]},{"name":"AnGraphicTween2011","children":[18],"translation":[824.75,-450.5,0],"scale":[0,0,0]},{"name":"AnNode18","mesh":0,"translation":[-55.75,34.5,0],"scale":[0,0,0]},{"name":"AnDummyNode","mesh":1,"scale":[0,0,0]}],"meshes":[{"primitives":[{"attributes":{"POSITION":1,"TEXCOORD_0":73},"indices":0,"material":0}]},{"primitives":[{"attributes":{"POSITION":4},"indices":3,"material":1}]}],"animations":[{"name":"AnSceneNodeSzene%201","samplers":[{"input":5,"interpolation":"STEP","output":6},{"input":7,"interpolation":"STEP","output":8},{"input":9,"interpolation":"STEP","output":10},{"input":11,"interpolation":"STEP","output":12},{"input":13,"interpolation":"STEP","output":14},{"input":15,"interpolation":"STEP","output":16},{"input":17,"interpolation":"STEP","output":18},{"input":19,"interpolation":"STEP","output":20},{"input":21,"interpolation":"STEP","output":22},{"input":23,"interpolation":"STEP","output":24},{"input":25,"interpolation":"STEP","output":26},{"input":27,"interpolation":"STEP","output":28},{"input":29,"interpolation":"STEP","output":30},{"input":31,"interpolation":"STEP","output":32},{"input":33,"interpolation":"STEP","output":34},{"input":35,"interpolation":"STEP","output":36},{"input":37,"interpolation":"STEP","output":38},{"input":39,"interpolation":"STEP","output":40},{"input":41,"interpolation":"STEP","output":42},{"input":43,"interpolation":"STEP","output":44},{"input":45,"interpolation":"STEP","output":46},{"input":47,"interpolation":"STEP","output":48},{"input":49,"interpolation":"STEP","output":50},{"input":51,"interpolation":"STEP","output":52},{"input":53,"interpolation":"STEP","output":54},{"input":55,"interpolation":"STEP","output":56},{"input":57,"interpolation":"STEP","output":58},{"input":59,"interpolation":"STEP","output":60},{"input":61,"interpolation":"STEP","output":62},{"input":63,"interpolation":"STEP","output":64},{"input":65,"interpolation":"STEP","output":66},{"input":67,"interpolation":"STEP","output":68},{"input":69,"interpolation":"STEP","output":70},{"input":71,"interpolation":"STEP","output":72}],"channels":[{"sampler":0,"target":{"node":1,"path":"scale"}},{"sampler":1,"target":{"node":1,"path":"translation"}},{"sampler":2,"target":{"node":4,"path":"scale"}},{"sampler":3,"target":{"node":4,"path":"translation"}},{"sampler":4,"target":{"node":3,"path":"scale"}},{"sampler":5,"target":{"node":3,"path":"translation"}},{"sampler":6,"target":{"node":6,"path":"scale"}},{"sampler":7,"target":{"node":6,"path":"translation"}},{"sampler":8,"target":{"node":5,"path":"scale"}},{"sampler":9,"target":{"node":5,"path":"translation"}},{"sampler":10,"target":{"node":8,"path":"scale"}},{"sampler":11,"target":{"node":8,"path":"translation"}},{"sampler":12,"target":{"node":7,"path":"scale"}},{"sampler":13,"target":{"node":7,"path":"translation"}},{"sampler":14,"target":{"node":10,"path":"scale"}},{"sampler":15,"target":{"node":10,"path":"translation"}},{"sampler":16,"target":{"node":9,"path":"scale"}},{"sampler":17,"target":{"node":9,"path":"translation"}},{"sampler":18,"target":{"node":12,"path":"scale"}},{"sampler":19,"target":{"node":12,"path":"translation"}},{"sampler":20,"target":{"node":11,"path":"scale"}},{"sampler":21,"target":{"node":11,"path":"translation"}},{"sampler":22,"target":{"node":14,"path":"scale"}},{"sampler":23,"target":{"node":14,"path":"translation"}},{"sampler":24,"target":{"node":13,"path":"scale"}},{"sampler":25,"target":{"node":13,"path":"translation"}},{"sampler":26,"target":{"node":16,"path":"scale"}},{"sampler":27,"target":{"node":16,"path":"translation"}},{"sampler":28,"target":{"node":15,"path":"scale"}},{"sampler":29,"target":{"node":15,"path":"translation"}},{"sampler":30,"target":{"node":18,"path":"scale"}},{"sampler":31,"target":{"node":18,"path":"translation"}},{"sampler":32,"target":{"node":17,"path":"scale"}},{"sampler":33,"target":{"node":17,"path":"translation"}}]}],"buffers":[{"uri":"Scene_1.bin","byteLength":6128}],"bufferViews":[{"buffer":0,"byteOffset":0,"byteLength":24,"target":34963},{"buffer":0,"byteOffset":24,"byteLength":48,"target":34962},{"buffer":0,"byteOffset":72,"byteLength":32},{"buffer":0,"byteOffset":104,"byteLength":24,"target":34963},{"buffer":0,"byteOffset":128,"byteLength":48,"target":34962},{"buffer":0,"byteOffset":176,"byteLength":48},{"buffer":0,"byteOffset":224,"byteLength":384},{"buffer":0,"byteOffset":608,"byteLength":48},{"buffer":0,"byteOffset":656,"byteLength":48},{"buffer":0,"byteOffset":704,"byteLength":64},{"buffer":0,"byteOffset":768,"byteLength":528},{"buffer":0,"byteOffset":1296,"byteLength":48},{"buffer":0,"byteOffset":1344,"byteLength":48},{"buffer":0,"byteOffset":1392,"byteLength":64},{"buffer":0,"byteOffset":1456,"byteLength":224},{"buffer":0,"byteOffset":1680,"byteLength":48},{"buffer":0,"byteOffset":1728,"byteLength":48},{"buffer":0,"byteOffset":1776,"byteLength":64},{"buffer":0,"byteOffset":1840,"byteLength":576},{"buffer":0,"byteOffset":2416,"byteLength":48},{"buffer":0,"byteOffset":2464,"byteLength":48},{"buffer":0,"byteOffset":2512,"byteLength":64},{"buffer":0,"byteOffset":2576,"byteLength":416},{"buffer":0,"byteOffset":2992,"byteLength":48},{"buffer":0,"byteOffset":3040,"byteLength":48},{"buffer":0,"byteOffset":3088,"byteLength":64},{"buffer":0,"byteOffset":3152,"byteLength":656},{"buffer":0,"byteOffset":3808,"byteLength":48},{"buffer":0,"byteOffset":3856,"byteLength":48},{"buffer":0,"byteOffset":3904,"byteLength":64},{"buffer":0,"byteOffset":3968,"byteLength":416},{"buffer":0,"byteOffset":4384,"byteLength":48},{"buffer":0,"byteOffset":4432,"byteLength":48},{"buffer":0,"byteOffset":4480,"byteLength":64},{"buffer":0,"byteOffset":4544,"byteLength":1376},{"buffer":0,"byteOffset":5920,"byteLength":48},{"buffer":0,"byteOffset":5968,"byteLength":48},{"buffer":0,"byteOffset":6016,"byteLength":48},{"buffer":0,"byteOffset":6064,"byteLength":32},{"buffer":0,"byteOffset":6096,"byteLength":32}],"accessors":[{"name":"accessor_0","bufferView":0,"byteOffset":0,"componentType":5125,"count":6,"type":"SCALAR","max":[3],"min":[0]},{"name":"accessor_1","bufferView":1,"byteOffset":0,"componentType":5126,"count":4,"type":"VEC3","max":[100,0,0],"min":[0,-100,0]},{"name":"accessor_2","bufferView":2,"byteOffset":0,"componentType":5126,"count":4,"type":"VEC2","max":[1,1],"min":[0,0]},{"name":"accessor_3","bufferView":3,"byteOffset":0,"componentType":5125,"count":6,"type":"SCALAR","max":[3],"min":[0]},{"name":"accessor_4","bufferView":4,"byteOffset":0,"componentType":5126,"count":4,"type":"VEC3","max":[100,0,0],"min":[0,-100,0]},{"name":"accessor_5","bufferView":5,"byteOffset":0,"componentType":5126,"count":3,"type":"SCALAR","max":[10],"min":[0]},{"name":"accessor_6","bufferView":5,"byteOffset":12,"componentType":5126,"count":3,"type":"VEC3"},{"name":"accessor_7","bufferView":6,"byteOffset":0,"componentType":5126,"count":24,"type":"SCALAR","max":[0.821],"min":[0]},{"name":"accessor_8","bufferView":6,"byteOffset":96,"componentType":5126,"count":24,"type":"VEC3"},{"name":"accessor_9","bufferView":7,"byteOffset":0,"componentType":5126,"count":3,"type":"SCALAR","max":[10],"min":[0]},{"name":"accessor_10","bufferView":7,"byteOffset":12,"componentType":5126,"count":3,"type":"VEC3"},{"name":"accessor_11","bufferView":8,"byteOffset":0,"componentType":5126,"count":3,"type":"SCALAR","max":[10],"min":[0]},{"name":"accessor_12","bufferView":8,"byteOffset":12,"componentType":5126,"count":3,"type":"VEC3"},{"name":"accessor_13","bufferView":9,"byteOffset":0,"componentType":5126,"count":4,"type":"SCALAR","max":[10],"min":[0]},{"name":"accessor_14","bufferView":9,"byteOffset":16,"componentType":5126,"count":4,"type":"VEC3"},{"name":"accessor_15","bufferView":10,"byteOffset":0,"componentType":5126,"count":33,"type":"SCALAR","max":[1.964],"min":[0]},{"name":"accessor_16","bufferView":10,"byteOffset":132,"componentType":5126,"count":33,"type":"VEC3"},{"name":"accessor_17","bufferView":11,"byteOffset":0,"componentType":5126,"count":3,"type":"SCALAR","max":[10],"min":[0]},{"name":"accessor_18","bufferView":11,"byteOffset":12,"componentType":5126,"count":3,"type":"VEC3"},{"name":"accessor_19","bufferView":12,"byteOffset":0,"componentType":5126,"count":3,"type":"SCALAR","max":[10],"min":[0]},{"name":"accessor_20","bufferView":12,"byteOffset":12,"componentType":5126,"count":3,"type":"VEC3"},{"name":"accessor_21","bufferView":13,"byteOffset":0,"componentType":5126,"count":4,"type":"SCALAR","max":[10],"min":[0]},{"name":"accessor_22","bufferView":13,"byteOffset":16,"componentType":5126,"count":4,"type":"VEC3"},{"name":"accessor_23","bufferView":14,"byteOffset":0,"componentType":5126,"count":14,"type":"SCALAR","max":[2.428],"min":[0]},{"name":"accessor_24","bufferView":14,"byteOffset":56,"componentType":5126,"count":14,"type":"VEC3"},{"name":"accessor_25","bufferView":15,"byteOffset":0,"componentType":5126,"count":3,"type":"SCALAR","max":[10],"min":[0]},{"name":"accessor_26","bufferView":15,"byteOffset":12,"componentType":5126,"count":3,"type":"VEC3"},{"name":"accessor_27","bufferView":16,"byteOffset":0,"componentType":5126,"count":3,"type":"SCALAR","max":[10],"min":[0]},{"name":"accessor_28","bufferView":16,"byteOffset":12,"componentType":5126,"count":3,"type":"VEC3"},{"name":"accessor_29","bufferView":17,"byteOffset":0,"componentType":5126,"count":4,"type":"SCALAR","max":[10],"min":[0]},{"name":"accessor_30","bufferView":17,"byteOffset":16,"componentType":5126,"count":4,"type":"VEC3"},{"name":"accessor_31","bufferView":18,"byteOffset":0,"componentType":5126,"count":36,"type":"SCALAR","max":[3.678],"min":[0]},{"name":"accessor_32","bufferView":18,"byteOffset":144,"componentType":5126,"count":36,"type":"VEC3"},{"name":"accessor_33","bufferView":19,"byteOffset":0,"componentType":5126,"count":3,"type":"SCALAR","max":[10],"min":[0]},{"name":"accessor_34","bufferView":19,"byteOffset":12,"componentType":5126,"count":3,"type":"VEC3"},{"name":"accessor_35","bufferView":20,"byteOffset":0,"componentType":5126,"count":3,"type":"SCALAR","max":[10],"min":[0]},{"name":"accessor_36","bufferView":20,"byteOffset":12,"componentType":5126,"count":3,"type":"VEC3"},{"name":"accessor_37","bufferView":21,"byteOffset":0,"componentType":5126,"count":4,"type":"SCALAR","max":[10],"min":[0]},{"name":"accessor_38","bufferView":21,"byteOffset":16,"componentType":5126,"count":4,"type":"VEC3"},{"name":"accessor_39","bufferView":22,"byteOffset":0,"componentType":5126,"count":26,"type":"SCALAR","max":[4.571],"min":[0]},{"name":"accessor_40","bufferView":22,"byteOffset":104,"componentType":5126,"count":26,"type":"VEC3"},{"name":"accessor_41","bufferView":23,"byteOffset":0,"componentType":5126,"count":3,"type":"SCALAR","max":[10],"min":[0]},{"name":"accessor_42","bufferView":23,"byteOffset":12,"componentType":5126,"count":3,"type":"VEC3"},{"name":"accessor_43","bufferView":24,"byteOffset":0,"componentType":5126,"count":3,"type":"SCALAR","max":[10],"min":[0]},{"name":"accessor_44","bufferView":24,"byteOffset":12,"componentType":5126,"count":3,"type":"VEC3"},{"name":"accessor_45","bufferView":25,"byteOffset":0,"componentType":5126,"count":4,"type":"SCALAR","max":[10],"min":[0]},{"name":"accessor_46","bufferView":25,"byteOffset":16,"componentType":5126,"count":4,"type":"VEC3"},{"name":"accessor_47","bufferView":26,"byteOffset":0,"componentType":5126,"count":41,"type":"SCALAR","max":[6],"min":[0]},{"name":"accessor_48","bufferView":26,"byteOffset":164,"componentType":5126,"count":41,"type":"VEC3"},{"name":"accessor_49","bufferView":27,"byteOffset":0,"componentType":5126,"count":3,"type":"SCALAR","max":[10],"min":[0]},{"name":"accessor_50","bufferView":27,"byteOffset":12,"componentType":5126,"count":3,"type":"VEC3"},{"name":"accessor_51","bufferView":28,"byteOffset":0,"componentType":5126,"count":3,"type":"SCALAR","max":[10],"min":[0]},{"name":"accessor_52","bufferView":28,"byteOffset":12,"componentType":5126,"count":3,"type":"VEC3"},{"name":"accessor_53","bufferView":29,"byteOffset":0,"componentType":5126,"count":4,"type":"SCALAR","max":[10],"min":[0]},{"name":"accessor_54","bufferView":29,"byteOffset":16,"componentType":5126,"count":4,"type":"VEC3"},{"name":"accessor_55","bufferView":30,"byteOffset":0,"componentType":5126,"count":26,"type":"SCALAR","max":[6.892],"min":[0]},{"name":"accessor_56","bufferView":30,"byteOffset":104,"componentType":5126,"count":26,"type":"VEC3"},{"name":"accessor_57","bufferView":31,"byteOffset":0,"componentType":5126,"count":3,"type":"SCALAR","max":[10],"min":[0]},{"name":"accessor_58","bufferView":31,"byteOffset":12,"componentType":5126,"count":3,"type":"VEC3"},{"name":"accessor_59","bufferView":32,"byteOffset":0,"componentType":5126,"count":3,"type":"SCALAR","max":[10],"min":[0]},{"name":"accessor_60","bufferView":32,"byteOffset":12,"componentType":5126,"count":3,"type":"VEC3"},{"name":"accessor_61","bufferView":33,"byteOffset":0,"componentType":5126,"count":4,"type":"SCALAR","max":[10],"min":[0]},{"name":"accessor_62","bufferView":33,"byteOffset":16,"componentType":5126,"count":4,"type":"VEC3"},{"name":"accessor_63","bufferView":34,"byteOffset":0,"componentType":5126,"count":86,"type":"SCALAR","max":[9.928],"min":[0]},{"name":"accessor_64","bufferView":34,"byteOffset":344,"componentType":5126,"count":86,"type":"VEC3"},{"name":"accessor_65","bufferView":35,"byteOffset":0,"componentType":5126,"count":3,"type":"SCALAR","max":[10],"min":[0]},{"name":"accessor_66","bufferView":35,"byteOffset":12,"componentType":5126,"count":3,"type":"VEC3"},{"name":"accessor_67","bufferView":36,"byteOffset":0,"componentType":5126,"count":3,"type":"SCALAR","max":[10],"min":[0]},{"name":"accessor_68","bufferView":36,"byteOffset":12,"componentType":5126,"count":3,"type":"VEC3"},{"name":"accessor_69","bufferView":37,"byteOffset":0,"componentType":5126,"count":3,"type":"SCALAR","max":[10],"min":[0]},{"name":"accessor_70","bufferView":37,"byteOffset":12,"componentType":5126,"count":3,"type":"VEC3"},{"name":"accessor_71","bufferView":38,"byteOffset":0,"componentType":5126,"count":2,"type":"SCALAR","max":[9.964],"min":[0]},{"name":"accessor_72","bufferView":38,"byteOffset":8,"componentType":5126,"count":2,"type":"VEC3"},{"name":"accessor_73","bufferView":39,"byteOffset":0,"componentType":5126,"count":4,"type":"VEC2","max":[0.537,0.69],"min":[0,0]}],"materials":[{"pbrMetallicRoughness":{"baseColorTexture":{"index":0}},"alphaMode":"MASK","alphaCutoff":0.76,"doubleSided":true},{"pbrMetallicRoughness":{"baseColorFactor":[1,1,1,0.9]},"alphaMode":"MASK","alphaCutoff":1,"doubleSided":false}],"samplers":[{"magFilter":9729,"minFilter":9729,"wrapS":33071,"wrapT":33071}],"textures":[{"sampler":0,"source":0}],"images":[{"uri":"Scene_1_anAtlas_0.png"}],"asset":{"version":"2.0","generator":"AdobeAnimateCC2019"}}